<?xml version="1.0" encoding="utf-8"?>
<!-- Generator: Adobe Illustrator 16.0.0, SVG Export Plug-In . SVG Version: 6.00 Build 0)  -->
<!DOCTYPE svg PUBLIC "-//W3C//DTD SVG 1.1//EN" "http://www.w3.org/Graphics/SVG/1.1/DTD/svg11.dtd">
<svg version="1.1" xmlns="http://www.w3.org/2000/svg" xmlns:xlink="http://www.w3.org/1999/xlink" x="0px" y="0px" width="312px"
	 height="459px" viewBox="0 0 312 459" enable-background="new 0 0 312 459" xml:space="preserve">
<g id="Layer_2">
	<g>
		<path fill="#8E7554" d="M0,439c0,11.046,8.954,20,20,20h272c11.046,0,20-8.954,20-20V56c0-11.046-8.954-20-20-20H20
			C8.954,36,0,44.954,0,56V439z"/>
	</g>
	<g>
		<path fill="#A3875F" d="M1,437c0,11.046,8.954,20,20,20h270c11.046,0,20-8.954,20-20V57c0-11.046-8.954-20-20-20H21
			C9.954,37,1,45.954,1,57V437z"/>
	</g>
	<rect x="18" y="53.887" fill="#FFFFFF" width="276" height="387"/>
</g>
<g id="Layer_1">
</g>
<g id="Layer_3">
	<g>
		<path fill="#C6C6C5" d="M187.672,29.522l0.018-0.006C187.689,13.214,176.819,0,156.01,0c-0.004,0-0.006,0-0.01,0
			c-0.002,0-0.006,0-0.01,0c-20.811,0-32.68,13.214-32.68,29.516l0.018,0.006c-0.308,18.66-38.193,20.959-41.44,34.365h148.226
			C226.501,47.986,187.98,48.182,187.672,29.522z M156.002,25.856c-4.457,0-8.069-3.612-8.069-8.068s3.612-8.068,8.069-8.068
			c4.455,0,8.066,3.612,8.066,8.068S160.457,25.856,156.002,25.856z"/>
		<path fill="#DCDBDB" d="M81.887,63.887c2.611-13.827,108.575-10.297,105.802-34.371C186.779,12.316,176.819,0,156.01,0
			c-0.004,0-0.006,0-0.01,0c-0.002,0-0.006,0-0.01,0c-20.811,0-32.68,13.214-32.68,29.516l0.018,0.006
			C123.02,48.182,81.121,52.396,81.887,63.887 M156.002,25.856c-4.457,0-8.07-3.612-8.07-8.068s3.613-8.068,8.07-8.068
			c4.455,0,8.066,3.612,8.066,8.068S160.457,25.856,156.002,25.856z"/>
	</g>
</g>
</svg>
