<?xml version="1.0" encoding="utf-8"?>
<!-- Generator: Adobe Illustrator 16.0.0, SVG Export Plug-In . SVG Version: 6.00 Build 0)  -->
<!DOCTYPE svg PUBLIC "-//W3C//DTD SVG 1.1//EN" "http://www.w3.org/Graphics/SVG/1.1/DTD/svg11.dtd">
<svg version="1.1" id="Layer_1" xmlns="http://www.w3.org/2000/svg" xmlns:xlink="http://www.w3.org/1999/xlink" x="0px" y="0px"
	 width="416.979px" height="422.979px" viewBox="0 0 416.979 422.979" enable-background="new 0 0 416.979 422.979"
	 xml:space="preserve">
<g>
	<g>
		<circle fill="#F1F2F2" cx="213.469" cy="209.557" r="169.5"/>
		<path fill="#787677" d="M213.469,384.057c-96.221,0-174.5-78.28-174.5-174.5s78.279-174.5,174.5-174.5
			c96.22,0,174.5,78.281,174.5,174.5S309.688,384.057,213.469,384.057z M213.469,45.057c-90.706,0-164.5,73.794-164.5,164.5
			s73.794,164.5,164.5,164.5c90.705,0,164.5-73.794,164.5-164.5S304.174,45.057,213.469,45.057z"/>
	</g>
	
		<line fill="none" stroke="#787677" stroke-width="10" stroke-linecap="round" stroke-miterlimit="10" x1="56.832" y1="160.288" x2="110.832" y2="214.289"/>
	
		<line fill="none" stroke="#787677" stroke-width="10" stroke-linecap="round" stroke-miterlimit="10" x1="373.176" y1="160.288" x2="319.176" y2="214.289"/>
	
		<line fill="none" stroke="#787677" stroke-width="10" stroke-linecap="round" stroke-miterlimit="10" x1="208.774" y1="40.124" x2="208.774" y2="118.43"/>
</g>
<path fill="#C0572D" d="M215.315,284.54c0.406-1.529,0.801-3.154,1.17-4.883c0.865-4.008,1.587-8.527,2.064-13.461
	c0.246-2.467,0.406-5.035,0.513-7.694c0.116-2.659,0.108-5.407-0.185-8.233c-0.268-2.824-0.805-5.728-1.527-8.696
	c-0.731-2.967-1.629-5.997-2.469-9.082c-0.837-3.081-1.599-6.215-2.055-9.39c-0.479-3.172-0.652-6.381-0.592-9.619
	c0.064-3.236,0.321-6.5,0.82-9.775c0.491-3.274,1.217-6.564,2.012-9.853c0.795-3.288,1.631-6.577,2.318-9.852
	c0.693-3.274,1.223-6.537,1.584-9.774c0.639-6.474,1.321-12.846,1.799-19.011c0.459-6.165,0.49-12.125,0.09-17.777
	c-0.384-5.651-1.049-10.995-1.823-15.926c-1.56-9.866-3.726-18.086-5.624-23.841c-0.943-2.877-1.809-5.137-2.444-6.679
	c-0.632-1.541-1.043-2.363-1.043-2.363h-2.298c0,0-0.411,0.822-1.043,2.363c-0.637,1.542-1.502,3.802-2.445,6.679
	c-1.898,5.755-4.064,13.975-5.623,23.841c-0.775,4.932-1.44,10.275-1.824,15.926c-0.4,5.652-0.369,11.612,0.09,17.777
	c0.478,6.165,1.16,12.537,1.799,19.011c0.361,3.237,0.891,6.5,1.585,9.774c0.687,3.275,1.522,6.564,2.318,9.852
	c0.794,3.289,1.52,6.578,2.011,9.853c0.5,3.275,0.756,6.539,0.82,9.775c0.061,3.238-0.113,6.447-0.592,9.619
	c-0.456,3.175-1.217,6.309-2.055,9.39c-0.84,3.085-1.736,6.115-2.468,9.082c-0.724,2.969-1.261,5.872-1.528,8.696
	c-0.293,2.826-0.301,5.574-0.185,8.233c0.106,2.659,0.267,5.228,0.513,7.694c0.479,4.934,1.2,9.453,2.064,13.461
	c0.369,1.729,0.764,3.354,1.17,4.883c-6.762,3.443-11.559,12.061-11.559,22.152c0,13.123,8.104,23.761,18.1,23.761
	s18.1-10.638,18.1-23.761C226.874,296.6,222.077,287.983,215.315,284.54z"/>
</svg>
