<?xml version="1.0" encoding="utf-8"?>
<!-- Generator: Adobe Illustrator 16.0.4, SVG Export Plug-In . SVG Version: 6.00 Build 0)  -->
<!DOCTYPE svg PUBLIC "-//W3C//DTD SVG 1.1//EN" "http://www.w3.org/Graphics/SVG/1.1/DTD/svg11.dtd">
<svg version="1.1" id="Layer_1" xmlns="http://www.w3.org/2000/svg" xmlns:xlink="http://www.w3.org/1999/xlink" x="0px" y="0px"
	 width="47.4px" height="259.5px" viewBox="0 0 47.4 259.5" enable-background="new 0 0 47.4 259.5" xml:space="preserve">
<path fill="#BF582C" d="M30.4,205.8c0.4-1.5,0.8-3.2,1.2-4.9c0.9-4,1.6-8.5,2.1-13.5c0.2-2.5,0.4-5,0.5-7.7c0.1-2.7,0.1-5.4-0.2-8.2
	c-0.3-2.8-0.8-5.7-1.5-8.7c-0.7-3-1.6-6-2.5-9.1c-0.8-3.1-1.6-6.2-2.1-9.4c-0.5-3.2-0.7-6.4-0.6-9.6c0.1-3.2,0.3-6.5,0.8-9.8
	c0.5-3.3,1.2-6.6,2-9.9c0.8-3.3,1.6-6.6,2.3-9.9c0.7-3.3,1.2-6.5,1.6-9.8c0.6-6.5,1.3-12.8,1.8-19c0.5-6.2,0.5-12.1,0.1-17.8
	c-0.4-5.7-1-11-1.8-15.9c-1.6-9.9-3.7-18.1-5.6-23.8c-0.9-2.9-1.8-5.1-2.4-6.7c-0.6-1.5-1-2.4-1-2.4h-2.3c0,0-0.4,0.8-1,2.4
	c-0.6,1.5-1.5,3.8-2.4,6.7c-1.9,5.8-4.1,14-5.6,23.8c-0.8,4.9-1.4,10.3-1.8,15.9c-0.4,5.7-0.4,11.6,0.1,17.8
	c0.5,6.2,1.2,12.5,1.8,19c0.4,3.2,0.9,6.5,1.6,9.8c0.7,3.3,1.5,6.6,2.3,9.9c0.8,3.3,1.5,6.6,2,9.9c0.5,3.3,0.8,6.5,0.8,9.8
	c0.1,3.2-0.1,6.4-0.6,9.6c-0.5,3.2-1.2,6.3-2.1,9.4c-0.8,3.1-1.7,6.1-2.5,9.1c-0.7,3-1.3,5.9-1.5,8.7c-0.3,2.8-0.3,5.6-0.2,8.2
	c0.1,2.7,0.3,5.2,0.5,7.7c0.5,4.9,1.2,9.5,2.1,13.5c0.4,1.7,0.8,3.4,1.2,4.9c-6.8,3.4-11.6,12.1-11.6,22.2
	c0,13.1,8.1,23.8,18.1,23.8s18.1-10.6,18.1-23.8C41.9,217.8,37.1,209.2,30.4,205.8z"/>
</svg>
