<?xml version="1.0" encoding="utf-8"?>
<!-- Generator: Adobe Illustrator 16.0.0, SVG Export Plug-In . SVG Version: 6.00 Build 0)  -->
<!DOCTYPE svg PUBLIC "-//W3C//DTD SVG 1.1//EN" "http://www.w3.org/Graphics/SVG/1.1/DTD/svg11.dtd">
<svg version="1.1" id="Layer_1" xmlns="http://www.w3.org/2000/svg" xmlns:xlink="http://www.w3.org/1999/xlink" x="0px" y="0px"
	 width="114.661px" height="56.723px" viewBox="0 0 114.661 56.723" enable-background="new 0 0 114.661 56.723"
	 xml:space="preserve">
<g transform="translate(3.26605,.6169)">
	<path fill="#FDEB03" stroke="#010101" stroke-width="2" stroke-linecap="round" stroke-linejoin="round" d="M53.749,27.797
		c0.241,7.399-2.271,14.683-8.54,19.576c-5.947,5.329-13.807,7.93-20.833,7.722c-6.706-0.527-13.973-3.392-18.305-7.96
		C0.052,40.788-3.124,34.15-2.064,25.263c0.551-6.321,3.785-13.498,8.078-17.437c6.017-5.566,14.331-8.11,22.32-7.294
		C41.064,0.837,54.149,13.654,53.749,27.797z"/>
	<path fill="none" stroke="#010101" stroke-width="2" stroke-linecap="round" stroke-linejoin="round" d="M10.849,35.473
		c3.878-2.265,6.077-3.04,9.743,0.406c4.052,2.404,8.059,1.788,11.164,0c4.467-2.29,7.122-2.873,9.946-0.812"/>
	<g>
		<path stroke="#010101" stroke-width="1.9929" stroke-linecap="round" stroke-linejoin="round" d="M33.721,20.221
			c0,1.024-0.581,1.854-1.297,1.854c-0.716,0-1.297-0.83-1.297-1.854s0.581-1.854,1.297-1.854
			C33.14,18.367,33.721,19.197,33.721,20.221z"/>
		<path stroke="#010101" stroke-width="1.9929" stroke-linecap="round" stroke-linejoin="round" d="M21.707,20.221
			c0,1.024-0.581,1.854-1.297,1.854c-0.716,0-1.297-0.83-1.297-1.854s0.581-1.854,1.297-1.854
			C21.126,18.367,21.707,19.197,21.707,20.221z"/>
	</g>
</g>
<g transform="translate(-.09642)">
	<path fill="#FDEB03" stroke="#010101" stroke-width="2" stroke-linecap="round" stroke-linejoin="round" d="M113.753,28.394
		c0.137,6.564-2.783,12.609-7.134,17.422c-5.491,6.072-13.381,10.059-21.624,9.304c-7.085-0.139-13.763-3.533-18.582-8.661
		c-6.111-5.167-8.836-12.736-7.305-20.545C60.352,11.656,74.6-0.136,88.87,1.701C101.756,3.182,113.243,15.829,113.753,28.394
		L113.753,28.394z"/>
	<g>
		<path stroke="#010101" stroke-width="1.9929" stroke-linecap="round" stroke-linejoin="round" d="M94.083,18.838
			c0,1.024-0.58,1.854-1.297,1.854c-0.716,0-1.297-0.83-1.297-1.854s0.581-1.854,1.297-1.854
			C93.503,16.984,94.083,17.814,94.083,18.838z"/>
		<path stroke="#010101" stroke-width="1.9929" stroke-linecap="round" stroke-linejoin="round" d="M82.069,18.838
			c0,1.024-0.58,1.854-1.297,1.854s-1.297-0.83-1.297-1.854s0.58-1.854,1.297-1.854S82.069,17.814,82.069,18.838z"/>
	</g>
	<path fill="none" stroke="#010101" stroke-width="2" stroke-linecap="round" stroke-linejoin="round" d="M72.962,32.956
		c1.564,8.434,9.967,11.027,17.855,10.314c4.51-0.406,10.248-3.832,10.968-9.503"/>
</g>
</svg>
